<svg width="24.000000" height="24.000000" viewBox="0 0 24 24" fill="none" xmlns="http://www.w3.org/2000/svg" xmlns:xlink="http://www.w3.org/1999/xlink">
	<desc>
			Created with Pixso.
	</desc>
	<defs/>
	<rect width="24.000000" height="24.000000" fill="#FFFFFF" fill-opacity="0"/>
	<path d="M18.16 14.37C17.49 14.23 16.96 14.54 16.49 14.81C16.01 15.1 15.09 15.84 14.56 15.65C11.88 14.54 9.35 12.19 8.25 9.49C8.06 8.95 8.8 8.03 9.08 7.54C9.35 7.07 9.65 6.53 9.51 5.86C9.39 5.25 7.76 3.18 7.18 2.61C6.8 2.24 6.42 2.03 6.02 2C4.52 1.93 2.84 3.94 2.54 4.41C1.81 5.44 1.81 6.8 2.56 8.45C4.35 12.87 11.14 19.56 15.59 21.42C16.41 21.8 17.16 22 17.83 22C18.49 22 19.08 21.81 19.58 21.45C19.96 21.23 22.05 19.47 21.99 17.93C21.96 17.53 21.76 17.14 21.39 16.76C20.82 16.18 18.77 14.5 18.16 14.37Z" fill="#FFFFFF" fill-opacity="1.000000" fill-rule="nonzero"/>
</svg>
